<svg width="43" height="37" viewBox="0 0 43 37" fill="none" xmlns="http://www.w3.org/2000/svg">
<path d="M42.3487 0.538601L42.2073 1.0744C40.1565 1.1219 38.851 2.2429 38.4793 5.1651L34.7495 31.1761C34.423 33.6613 35.0758 34.9761 36.753 35.073L36.6134 35.6088H27.8954L28.035 35.073C29.7593 35.0255 31.1121 33.7088 31.4309 31.3718L35.6342 3.6071L28.3614 17.3916C27.6633 18.8052 26.8691 20.2663 26.0767 21.7768L24.1656 25.3868L21.6488 30.3059C20.4829 32.5859 20.0169 33.9159 20.0169 35.0787C18.9446 35.4184 17.9127 35.8759 16.9398 36.4429L13.6269 3.2651L6.63515 30.5928C5.70324 33.515 6.86917 34.9267 9.52544 35.073L9.38586 35.6088H0.528259L0.667839 35.073C3.13927 35.0255 4.81837 33.515 5.75039 30.6403L12.2743 5.2639C13.1591 2.5355 12.3686 1.1219 9.80471 1.0744L9.89714 0.538601H16.6569L19.9697 31.957L24.1656 24.0644L27.8407 17.0515C32.0912 8.9651 34.5155 4.1429 35.1211 2.64C35.397 1.96301 35.6159 1.26389 35.7757 0.550001L42.3487 0.538601Z" fill="#040506"/>
</svg>
