<svg width="31" height="38" viewBox="0 0 31 38" fill="none" xmlns="http://www.w3.org/2000/svg">
<path d="M30.6633 11.5535H30.097C29.9086 9.3609 29.369 5.7756 28.8561 4.8503C28.3433 3.8756 27.4581 3.1935 26.1504 2.7603C24.9017 2.31 22.8571 2.12 20.0063 2.12H14.5558L11.3338 16.199H17.6272C20.7979 16.199 22.1959 14.983 22.8961 12.399H23.4624L21.4969 20.778H20.983C21.5493 17.7095 20.7511 16.788 17.4399 16.788H11.1933L6.99789 35.0546C8.44297 35.6873 10.394 36.0293 12.8723 36.0293C16.2292 36.0293 19.0821 35.4441 20.9852 34.3193C22.8883 33.1945 25.7657 29.3793 27.5885 25.9783H28.1939L22.3453 37.1883C20.993 36.7995 19.1278 36.6043 16.7498 36.6031H0.749405L0.890881 36.0673C2.80198 35.921 3.87359 34.9482 4.43392 32.4155L10.5935 5.6293C11.1599 3.0966 10.5467 2.2188 8.68256 2.0744L8.82225 1.5386H23.4602C26.3053 1.5386 28.496 1.1966 29.9409 0.5639L30.6633 11.5535Z" fill="#040506"/>
</svg>
