<svg width="38" height="37" viewBox="0 0 38 37" fill="none" xmlns="http://www.w3.org/2000/svg">
<path d="M38 0.53859L37.9052 1.07439C35.2942 1.12189 33.9441 2.38919 33.0121 6.2861L27.4166 29.8613C27.0019 31.4301 27.0342 33.0846 27.508 34.636C26.4344 35.172 25.4321 35.8431 24.5257 36.6329L12.668 4.7756L7.60098 29.6656C6.80831 33.1236 7.78939 34.9248 10.5386 35.1205L10.4461 35.6069H0.980911L1.07345 35.1205C3.9654 34.9742 5.83169 33.1236 6.66896 29.6656L11.5944 6.82C12.4819 3.06939 11.503 1.16939 8.75041 1.07249L8.89088 0.53669H14.7194L26.3898 31.52L32.2172 6.288C33.0121 2.63429 32.1726 1.22069 29.3275 1.07629L29.4211 0.54049L38 0.53859Z" fill="#040506"/>
</svg>
